<mxfile host="app.diagrams.net" agent="Mozilla/5.0 (Windows NT 10.0; Win64; x64) AppleWebKit/537.36 (KHTML, like Gecko) Chrome/135.0.0.0 Safari/537.36" version="26.2.13">
  <diagram name="Page-1" id="6Ek42ik5ct3HagGXAbnE">
    <mxGraphModel dx="1428" dy="777" grid="1" gridSize="10" guides="1" tooltips="1" connect="1" arrows="1" fold="1" page="1" pageScale="1" pageWidth="850" pageHeight="1100" math="0" shadow="0">
      <root>
        <mxCell id="0" />
        <mxCell id="1" parent="0" />
        <mxCell id="XJLJNJ6O4m-f_ByMj37F-18" style="edgeStyle=orthogonalEdgeStyle;rounded=0;orthogonalLoop=1;jettySize=auto;html=1;" edge="1" parent="1" source="XJLJNJ6O4m-f_ByMj37F-1">
          <mxGeometry relative="1" as="geometry">
            <mxPoint x="210" y="108.5" as="targetPoint" />
          </mxGeometry>
        </mxCell>
        <mxCell id="XJLJNJ6O4m-f_ByMj37F-1" value="" style="sketch=0;pointerEvents=1;shadow=0;dashed=0;html=1;strokeColor=none;fillColor=#505050;labelPosition=center;verticalLabelPosition=bottom;verticalAlign=top;outlineConnect=0;align=center;shape=mxgraph.office.devices.bluetooth;" vertex="1" parent="1">
          <mxGeometry x="80" y="80" width="56" height="57" as="geometry" />
        </mxCell>
        <mxCell id="XJLJNJ6O4m-f_ByMj37F-2" value="" style="sketch=0;outlineConnect=0;fontColor=#232F3E;gradientColor=none;fillColor=#7AA116;strokeColor=none;dashed=0;verticalLabelPosition=bottom;verticalAlign=top;align=center;html=1;fontSize=12;fontStyle=0;aspect=fixed;pointerEvents=1;shape=mxgraph.aws4.iot_device_gateway;" vertex="1" parent="1">
          <mxGeometry x="82" y="212.65" width="57" height="53.35" as="geometry" />
        </mxCell>
        <mxCell id="XJLJNJ6O4m-f_ByMj37F-19" style="edgeStyle=orthogonalEdgeStyle;rounded=0;orthogonalLoop=1;jettySize=auto;html=1;" edge="1" parent="1" source="XJLJNJ6O4m-f_ByMj37F-6">
          <mxGeometry relative="1" as="geometry">
            <mxPoint x="420" y="140" as="targetPoint" />
          </mxGeometry>
        </mxCell>
        <mxCell id="XJLJNJ6O4m-f_ByMj37F-6" value="" style="shape=image;verticalLabelPosition=bottom;labelBackgroundColor=default;verticalAlign=top;aspect=fixed;imageAspect=0;image=data:image/png,iVBORw0KGgoAAAANSUhEUgAAATYAAACjCAMAAAA3vsLfAAAAkFBMVEX////QISnNAADPGSLQHSbOABLNAArOBxbnpaf99PTWR0zyzs/ZVlvQHyfPERzUNj366erghYfstLbRJy7++fnxxcfvvb701NXklZfii4343+DNAAfPFB7pqKrffYDbZ2vnn6L44eLSLzbedXj77e3ZXWHedXnuubvrr7HVREriio3XT1TVOkHkkpTbZGjXU1f+9Cq+AAAIT0lEQVR4nO2cbVuqMBiAYcDQEDTfEzTUyjpa5///u6PuGWxjIAOs03U996fQNZ7djL2XZSEIgiAIgiAIgiAIgiAIgiAIgiAIgiAIgiAIgiAIgiAIgiAIgiAIgiAIgiAIgiAIgnTNfHy48D79ySBmLIhx/yeDMOIUexfIy08GcSQsiNFPBmHEg2tfID/6oAcOC+J+2l5WC5nVarVtUeb62vrCTcvKt11dMQ3i/tpSEsuQC/7Hfr1tlF99bQER7lnSFIbXaIyr7v219XxbQ+gmHjm9N8jPQBvN7+d/6tMM3UZv/E9pu+J6YWCcXzNtoadP/xu1ncWR1DS/Ztrs6I82zX+vzfE5UeKEWXGI6YvaUFtItSOW/12b89xjpMvl/iEhEZgLiWHPYKwNbhRtdGn+d23eQfxwulp67M528mqWn6m2cOfA89GV8b/XNlY+75/Am2F1M9UWfb6yG0VvmjS/TpvV99nr46dG+Rlre1qR8ufz+7Rlrd7AKD9jbY8WVLfkuZjmF2obxddv3IlRfg20ZdWtOIn6hdqsyTXmMDZaA1K1vayCM7pZbqbN+kpYvS72Ph1pKw+iKRXajnDzy4hqNGdoZtXwzYxdCdr6s6cHJyb0DPGGTwvl93JtW17d1CSKNh5EIVkWxJxdCdr6sz95EKdCEE2p0PYsPLMDrGAV545TQi/fxDa7BG3xaDygNMoGzqEbkaMcc67Neobq9lfNXNY2gyAei7HSaxA0YlegLV4dXtUgHsznizpqapt715+jZSHVlI2M3SG7BG227wlzDYZDpDGGoG1EWFqilknRxgbI0VMxVjcU22HQpg9ibyZIT42X9BK0sTYt/kloJwVt1j5iZToqmbfUpg9i2MGC/e0uwbvcpZk2J/HPr44fZZ8lp/wXRW0vvLrN5My70FYMYtfeW7m2F9ZQMx/m2twoJsdN+j4erx9PJIFPo3xwJmqzHqG6fciZt9V2CeLh7RzE+/vjRx6E4YRRQ7m2d2aKjUKNtcXDT6EH2O6hOtkku5GkrU+hus2lzFtqozsxiNEbDyJusgArUa5txwT468uFqTZPedvORWYhuw5/QyRt1pNvi9kA7bTJ6xOXW3osiNBv+5qWaoNWGsaMptqKI9QAHrXX4x9I2vpQIioVtZ224q7jIm400S5Som30yjzZydf1ur02K2VZuDu4lrVZS6hu0lyupbbi5GoNQTh6G7UpapuOgvSV8EYV1iU60AY9czYXULRNYcWFiu1O59p40xO3HPXyRXGPkOuS+GV/jfpZB843E7rQlvpSHoq2rDaKFaF7bWsIQr93URthCya8YIuEhC9Vd6ENpp7OA7tUtVmO0vhZ99AmDauaU7VzlZCsBF1os9hrGHrsqqAN2h3+/YXutfGHQ6qk3KZU23na+5XfthNtf6XSFLRZIQx58pvcQdsXfGd8QkKCa3OdjCSJfEpOn+JNO9H2xobplDXHRW3vsJflZaOqO2iD+QhVB5ZmgDb343XAed4/pTNlyNOJtiWL2GMzgaI23tfmRxvuoA06Jq/dREG74VekE21rabCj0XaA6kb5b99BG8wZ2eSnMRUrICKdaIOI4UFrtIGmfHhwB20H0NbTfFef79R2uKltzrZ9Qj4tuoO22a/TNr6pzTpBdYPxItY2K2/bWDuq1RYQqG6sxHfQJj+7pnynNt6JlfakVrYSn7AV/ztoq9kH3uA7tW3YuC1mc3m9tgWvbtclhDuO29rN5b9T2+DGLEFMxBaV7zhLaHY0mWOorbhwYKAtqZ6TMhbi0Qa9Ns1ROPM5abv1XTNtSXGTsb62kbz4UKJNOtqg1aY7Y1NbWx8aAbe6vLcw01bYyDTRBl0/ryxl2lbC0QatNvdD/RUDbVx9y03mmtrgbmFxvaW+NjiywPuwMm3Z0Yajqm0R22UvWG1tG5gXt9y7qqmNRxwXzp7U1gZ7emEMM4BSbSNe3QJFGz9io+kF62qbwk5P2zNcNbXBoqimOa6t7Q/sIPPzMaXarD1Utw9FG99M1bxhdbXBRo+6jW1MTW28AyqeHK+rbQEbfjHfQC7Xlp2kWXzI59tg/0SzxlhTG9/wo7eKe4u62mCUeNajNiyJVpsa8cJnX2T7fRXaeAPkHk+hpO2TB7FTn8pEq019xIsEgrBvlPYmdbXx/s12JlLLsoK1R0VbGL3NBL/Tp+wwQ7aqWqHtBSqFG8pVl1dD27GlxdltCkHI2tQglsRVg2hKXW3ZLr3tktPneLZYBfP3xwElWS1kyfgZkDCh5GOzngerxaz3lf15iJe3jRXasrptK2/8hu98uPEuC+LVI3xlXzkDwoLozYNFMFs/E9iJtf32R9xqa7Mm2eapG3mUxtTz8oOK2oNabuJ7lMTCtqsvHDuv0saPNqjarGGSZa4LQnNQ6xpETKmf8GR+cfBpTH1tLxOpCijwNusUhaVpQiKO76u0WZ/ihpqgrT+s/NM6aLOOfkUQcftjWibarOmeOPpIzk+eQDCLZ48m2hOVYUSkpcFKbX2x4GK3XBFE4pEjD8KnUVkQaRNNKj04w1Br1BwMiC+dhg1DJ/JjOtwc8p2u6XwzIedXxxUSXsrkPcq7YcH1ADPR/onaeYBFsj859OXRzEIbBI2Hm3HefU9nm502iE03//sgWDJqnjzfpn8TQr1rac7tlhc+bNZBcWg7mj8NbI8npIRO9mN14DLqrS+UdGrTZc6n8qujdKAG0dMH8TpRgvjB/3wwCg5pr5eeO6hRZRT97Tlh2kvT2ar7f29RO4hzwh4L4vf8VxAEQRAEQRAEQRAEQRAEQRAEQRAEQRAEQRAEQRAEQRAEQRAEQRAEQRAEQRAEQRAEQb6Lf2P4p2dk4FEkAAAAAElFTkSuQmCC;" vertex="1" parent="1">
          <mxGeometry x="220" y="80" width="90" height="47.32" as="geometry" />
        </mxCell>
        <mxCell id="XJLJNJ6O4m-f_ByMj37F-21" style="edgeStyle=orthogonalEdgeStyle;rounded=0;orthogonalLoop=1;jettySize=auto;html=1;" edge="1" parent="1">
          <mxGeometry relative="1" as="geometry">
            <mxPoint x="553" y="174.75" as="targetPoint" />
            <mxPoint x="451.5" y="174.79999999999995" as="sourcePoint" />
          </mxGeometry>
        </mxCell>
        <mxCell id="XJLJNJ6O4m-f_ByMj37F-7" value="" style="points=[];aspect=fixed;html=1;align=center;shadow=0;dashed=0;fillColor=#FF6A00;strokeColor=none;shape=mxgraph.alibaba_cloud.hsm_hardware_security_module;" vertex="1" parent="1">
          <mxGeometry x="402" y="150" width="46.5" height="49.5" as="geometry" />
        </mxCell>
        <mxCell id="XJLJNJ6O4m-f_ByMj37F-8" value="" style="rounded=0;whiteSpace=wrap;html=1;align=left;" vertex="1" parent="1">
          <mxGeometry x="560" y="60" width="120" height="350" as="geometry" />
        </mxCell>
        <mxCell id="XJLJNJ6O4m-f_ByMj37F-9" value="Backend Engine" style="text;html=1;align=center;verticalAlign=middle;whiteSpace=wrap;rounded=0;" vertex="1" parent="1">
          <mxGeometry x="565" y="410" width="110" height="30" as="geometry" />
        </mxCell>
        <mxCell id="XJLJNJ6O4m-f_ByMj37F-10" value="" style="sketch=0;points=[[0,0,0],[0.25,0,0],[0.5,0,0],[0.75,0,0],[1,0,0],[0,1,0],[0.25,1,0],[0.5,1,0],[0.75,1,0],[1,1,0],[0,0.25,0],[0,0.5,0],[0,0.75,0],[1,0.25,0],[1,0.5,0],[1,0.75,0]];outlineConnect=0;fontColor=#232F3E;fillColor=#E7157B;strokeColor=#ffffff;dashed=0;verticalLabelPosition=bottom;verticalAlign=top;align=center;html=1;fontSize=12;fontStyle=0;aspect=fixed;shape=mxgraph.aws4.resourceIcon;resIcon=mxgraph.aws4.api_gateway;" vertex="1" parent="1">
          <mxGeometry x="590.5" y="70" width="50" height="50" as="geometry" />
        </mxCell>
        <mxCell id="XJLJNJ6O4m-f_ByMj37F-11" value="" style="sketch=0;points=[[0,0,0],[0.25,0,0],[0.5,0,0],[0.75,0,0],[1,0,0],[0,1,0],[0.25,1,0],[0.5,1,0],[0.75,1,0],[1,1,0],[0,0.25,0],[0,0.5,0],[0,0.75,0],[1,0.25,0],[1,0.5,0],[1,0.75,0]];outlineConnect=0;fontColor=#232F3E;fillColor=#ED7100;strokeColor=#ffffff;dashed=0;verticalLabelPosition=bottom;verticalAlign=top;align=center;html=1;fontSize=12;fontStyle=0;aspect=fixed;shape=mxgraph.aws4.resourceIcon;resIcon=mxgraph.aws4.lambda;" vertex="1" parent="1">
          <mxGeometry x="590.5" y="137" width="50" height="50" as="geometry" />
        </mxCell>
        <mxCell id="XJLJNJ6O4m-f_ByMj37F-12" value="" style="sketch=0;points=[[0,0,0],[0.25,0,0],[0.5,0,0],[0.75,0,0],[1,0,0],[0,1,0],[0.25,1,0],[0.5,1,0],[0.75,1,0],[1,1,0],[0,0.25,0],[0,0.5,0],[0,0.75,0],[1,0.25,0],[1,0.5,0],[1,0.75,0]];outlineConnect=0;fontColor=#232F3E;fillColor=#01A88D;strokeColor=#ffffff;dashed=0;verticalLabelPosition=bottom;verticalAlign=top;align=center;html=1;fontSize=12;fontStyle=0;aspect=fixed;shape=mxgraph.aws4.resourceIcon;resIcon=mxgraph.aws4.bedrock;" vertex="1" parent="1">
          <mxGeometry x="590.5" y="203" width="50" height="50" as="geometry" />
        </mxCell>
        <mxCell id="XJLJNJ6O4m-f_ByMj37F-14" value="" style="sketch=0;points=[[0,0,0],[0.25,0,0],[0.5,0,0],[0.75,0,0],[1,0,0],[0,1,0],[0.25,1,0],[0.5,1,0],[0.75,1,0],[1,1,0],[0,0.25,0],[0,0.5,0],[0,0.75,0],[1,0.25,0],[1,0.5,0],[1,0.75,0]];outlineConnect=0;fontColor=#232F3E;fillColor=#7AA116;strokeColor=#ffffff;dashed=0;verticalLabelPosition=bottom;verticalAlign=top;align=center;html=1;fontSize=12;fontStyle=0;aspect=fixed;shape=mxgraph.aws4.resourceIcon;resIcon=mxgraph.aws4.s3;" vertex="1" parent="1">
          <mxGeometry x="590.5" y="270" width="50" height="50" as="geometry" />
        </mxCell>
        <mxCell id="XJLJNJ6O4m-f_ByMj37F-15" value="" style="sketch=0;points=[[0,0,0],[0.25,0,0],[0.5,0,0],[0.75,0,0],[1,0,0],[0,1,0],[0.25,1,0],[0.5,1,0],[0.75,1,0],[1,1,0],[0,0.25,0],[0,0.5,0],[0,0.75,0],[1,0.25,0],[1,0.5,0],[1,0.75,0]];outlineConnect=0;fontColor=#232F3E;fillColor=#C925D1;strokeColor=#ffffff;dashed=0;verticalLabelPosition=bottom;verticalAlign=top;align=center;html=1;fontSize=12;fontStyle=0;aspect=fixed;shape=mxgraph.aws4.resourceIcon;resIcon=mxgraph.aws4.rds;" vertex="1" parent="1">
          <mxGeometry x="590.5" y="340" width="50" height="50" as="geometry" />
        </mxCell>
        <mxCell id="XJLJNJ6O4m-f_ByMj37F-17" value="Security:&lt;div&gt;&lt;span style=&quot;white-space: pre;&quot;&gt;&#x9;&lt;/span&gt;&lt;strong style=&quot;background-color: transparent; color: light-dark(rgb(0, 0, 0), rgb(255, 255, 255));&quot; data-end=&quot;1931&quot; data-start=&quot;1912&quot;&gt;Data Protection&lt;/strong&gt;&lt;br&gt;&lt;/div&gt;&lt;ul data-end=&quot;2126&quot; data-start=&quot;1932&quot;&gt;&lt;li class=&quot;&quot; data-end=&quot;1986&quot; data-start=&quot;1932&quot;&gt;&lt;p class=&quot;&quot; data-end=&quot;1986&quot; data-start=&quot;1934&quot;&gt;&lt;strong data-end=&quot;1966&quot; data-start=&quot;1934&quot;&gt;Data Encryption&lt;/strong&gt;&amp;nbsp;(e.g: AES-256)&lt;/p&gt;&lt;/li&gt;&lt;li class=&quot;&quot; data-end=&quot;2023&quot; data-start=&quot;1987&quot;&gt;&lt;p class=&quot;&quot; data-end=&quot;2023&quot; data-start=&quot;1989&quot;&gt;&lt;strong data-end=&quot;2004&quot; data-start=&quot;1993&quot;&gt;AWS KMS&lt;/strong&gt; for key management&lt;/p&gt;&lt;/li&gt;&lt;li class=&quot;&quot; data-end=&quot;2079&quot; data-start=&quot;2024&quot;&gt;&lt;p class=&quot;&quot; data-end=&quot;2079&quot; data-start=&quot;2026&quot;&gt;&lt;strong data-end=&quot;2079&quot; data-start=&quot;2053&quot;&gt;server-side encryption (S3, RDS)&lt;/strong&gt;&lt;/p&gt;&lt;/li&gt;&lt;li class=&quot;&quot; data-end=&quot;2126&quot; data-start=&quot;2080&quot;&gt;&lt;p class=&quot;&quot; data-end=&quot;2126&quot; data-start=&quot;2082&quot;&gt;&lt;strong data-end=&quot;2102&quot; data-start=&quot;2082&quot;&gt;PII (personal identifiable information) e.g: Presidio&lt;/strong&gt;&lt;/p&gt;&lt;/li&gt;&lt;/ul&gt;&lt;p class=&quot;&quot; data-end=&quot;2160&quot; data-start=&quot;2128&quot;&gt;&lt;strong data-end=&quot;2160&quot; data-start=&quot;2128&quot;&gt;Authentication/Authorization&lt;/strong&gt;&lt;/p&gt;&lt;ul data-end=&quot;2319&quot; data-start=&quot;2161&quot;&gt;&lt;li class=&quot;&quot; data-end=&quot;2220&quot; data-start=&quot;2161&quot;&gt;&lt;p class=&quot;&quot; data-end=&quot;2220&quot; data-start=&quot;2163&quot;&gt;&lt;strong data-end=&quot;2178&quot; data-start=&quot;2163&quot;&gt;AWS Cognito&lt;/strong&gt;&lt;/p&gt;&lt;/li&gt;&lt;/ul&gt;&lt;p class=&quot;&quot; data-end=&quot;2343&quot; data-start=&quot;2321&quot;&gt;&lt;strong data-end=&quot;2343&quot; data-start=&quot;2321&quot;&gt;Audit &amp;amp; Compliance&lt;/strong&gt;&lt;/p&gt;&lt;ul data-end=&quot;2506&quot; data-start=&quot;2344&quot;&gt;&lt;li class=&quot;&quot; data-end=&quot;2405&quot; data-start=&quot;2344&quot;&gt;&lt;p class=&quot;&quot; data-end=&quot;2405&quot; data-start=&quot;2346&quot;&gt;&lt;strong data-end=&quot;2378&quot; data-start=&quot;2346&quot;&gt;CloudTrail + CloudWatch Logs&lt;/strong&gt; for full activity tracking&lt;/p&gt;&lt;/li&gt;&lt;/ul&gt;" style="text;html=1;align=left;verticalAlign=middle;whiteSpace=wrap;rounded=0;" vertex="1" parent="1">
          <mxGeometry x="95" y="530" width="580" height="260" as="geometry" />
        </mxCell>
        <mxCell id="XJLJNJ6O4m-f_ByMj37F-20" style="edgeStyle=orthogonalEdgeStyle;rounded=0;orthogonalLoop=1;jettySize=auto;html=1;entryX=0.538;entryY=0.909;entryDx=0;entryDy=0;entryPerimeter=0;" edge="1" parent="1">
          <mxGeometry relative="1" as="geometry">
            <mxPoint x="147" y="238.39999999999998" as="sourcePoint" />
            <mxPoint x="427.01700000000005" y="206.9955" as="targetPoint" />
          </mxGeometry>
        </mxCell>
        <mxCell id="XJLJNJ6O4m-f_ByMj37F-22" value="Edge Device" style="text;html=1;align=center;verticalAlign=middle;whiteSpace=wrap;rounded=0;" vertex="1" parent="1">
          <mxGeometry x="53" y="131.32" width="110" height="30" as="geometry" />
        </mxCell>
        <mxCell id="XJLJNJ6O4m-f_ByMj37F-23" value="IoT Device" style="text;html=1;align=center;verticalAlign=middle;whiteSpace=wrap;rounded=0;" vertex="1" parent="1">
          <mxGeometry x="55.5" y="266" width="110" height="30" as="geometry" />
        </mxCell>
        <mxCell id="XJLJNJ6O4m-f_ByMj37F-24" value="" style="shape=image;verticalLabelPosition=bottom;labelBackgroundColor=default;verticalAlign=top;aspect=fixed;imageAspect=0;image=data:image/png,iVBORw0KGgoAAAANSUhEUgAAASsAAACpCAMAAABEdevhAAAA7VBMVEX///8vMpMCru4wM5IArO4Aqe0AAAD09PkkKJAuMZMAqe4ArO3b8/0bs+8wt/BjxPIcIYy4udVwyvQqLZEYHY2Gz/QZHowhJY4rLpL5+fwlKY/a7vsTGYvD6PqtrtAdIY3P0OTCw9zq6/R5erSo3Peen8g4O5fY2Oni4u/0+/5eYKdPUaBJS56V1vbp9/3j9f0KEomQkcB9fX3e3t5AQ5pucK+am8Wy4fiDhLlXWaTR0dG1tbU/Pz9ubm4VFRVQUFC0tdVzdrKenp4xMTHDw8OIiIimpqYjIyNdXV27u7tnZ2fV1dVnaatIvfAABoczdJuOAAAT/UlEQVR4nO1da2OiSBZVEQWNiQoBpFEQ49sk2q2J9vTD9OzOzu7E+f8/Z3lUFVVQyEPUmMn50h3kVYeqe8+99crlPvCBD5wYX399/vzrX+d+i0vA199LLn4795u8efxRKv0q53Kt30qlz+d+lzeOf5VKX9z/tb6V/n3ed3nrsKn6/u3Hj59/5FqItg/Q8Fvpu83Rr3/b5uqPj1a4D99Llv8r/Sfn8FQu/X7u93nL+FYq2+2w/OVPm7T/lFrnfqE3jN9driz8cv76B3JlDo1Gp99fWHjqd7rGqBxy4p+2OS/9+PJf265bhuukb3letIbdp/VUns81UdLrsgVOlnVJ1Ob6ZtEYBS/4Zden0g+btF+5r6U/T//K50DZ6PeWc02SOYHPB8ELsjQfrLu+RvbF5smuTr+VfuZ+lv57nnc/JUaN3kzSZJVGEgYmz2nqekhc+rn0v9xff1n/+frXH6Vv53n9k2G0fRmIkqpE8ITqFydOG/j130o/HQVa/lz6EWbV3gPMRm8g6lHVyQ9BXHaxm3wulX7//v1bqfTz/VI16k/t+pSMJ8CWNsF4+fL5h6UZvn89X1GOC2MhaDLViMeDqnWjH/IeYKwVjUvPk4v54tzFOD6Mdf5womxIL+cuynExXAy0pKY8DIz+eu7iHA9mZyrKGRHlQFqfu0hHQvdV11M5vT3Qns5dqiNgtJAlNWOibPxtnLtkGaPVmMwzbXselPy70p+jBSMKRyHKBrc6d/myg/GarTkPQHonmrTcWUpZKYQwCMtzlzILmGsuc8dHgdQ5d0EPxvBVko9PlAVlcOE59u4mjTzneUXgZF3SLOj1uu78q8vq/hhb3J67tAeg1ZlpST2fosqSJg2mq0V/2zWGo5FpYTSyuyieehNGk7jQ5qzMzl3g1Cj3B1IiM8WrsigOVovGsBzWmlpmdz2TwhzqfBhy2RtH+UmoJ2h8vFqfq6snI46iHPUH9OrKXWR2pryQ9fhMCXWt/tKhdGSForsRKVWW549WoKPBXIixXR+vSuKkk7zxdJf14M20S2uE5jq2SOA5Md/rpozkFlqg5sr9bItyZNh1Kl7r4zmNWRsHaCIj4BKFSXYFOTrMRT1eneJVTTmIKBsjxUcWz2RTjBOgvFDjMaXo4srfyZ4GI1++ntHNw296EnSUeK1PnS87GZXJIG0WoxnZ3PfI2PKxVIKiq70MvdWC9Ib6NrtbHw3dWdAr0aqUtuxkm8BcEo+9AEc4pEpDP3hZXBlZP7oh4o9488rd7MXJDSs6t0gizeOCwb+S2jvCE7KEOYj2forI9I/Te/CEP1x9872qrVdpv7EStOX2WA8fzfEHXYAYXUvhRDGquDlmv8FAuSyuclstzLir2qtx1EevOexhF9HzZfBU+66Kr8eO/Ts69ri3bttdmAPuHExZXwlTDfJb1wwArYlOMiVoJ2DKMu4axtXb16IAPdzCC+LkNJk3E3OE9e1JHpkFOvATM4o2NU700DLGlXiqh2aArupYeEVfxlcJD8/3t83bu/Y45TNxrqTj52TauxsA6guP4a+7dtSdRoya53WG1l0O7/FMHP20Y9miBZatXN+menm8DQqp7pAI7Yr9usVqsUIlA/xcLFY+Rd6qvNHUJ2oaD9ykco8fvK9UCxBFNlXVwrgSpmlukBAsfF3qp70tgp9rMW7VCsvjgZsUca7u2YKH6nXyF7cw9PzgSSTDTXHf69Ygk81DnkHh6rFSwLnapbpv19NXUiP6dPo9Epz7DL8v+xj88RH9GGmu9oHC1U0V54peqSOB6XYtpWlfJLlujOi4C/6IiCymdVUOigFGxkS1oj47Brx4UBmke7OXZKH9NfjCxZvgb/Drp2wjEGyAqzayVpYbZEMcSyQmwoHmapVwdDwystXgbzXIY7rvDgE+B8bVPaxqxWa7/Xy/e0h1X29QVrpenE3SwZNXkKvgx/V+ukrzKgjXxaoNzEFA/1pNZ6hcYLk+PU2X40ZLnNlGvi7w3neAq2ohxZtg2NWubdQ8296E9SpdhXLRQEFomoRMazZPHm43oVEKqIZdNYzFQwGUSjWObAvFGk3DSDGTsDWVUmRSkZ2t+D7yuFDNQjHQAJxGSg0KwEBzlWL0VWsqyylkxhhqc5aM1zwS2eQ3jQCsV4dw5Zmr5F6wNeW0VAO9d9DQ+lQDMsCHKQYasqhXHdhJz4uJbfSGUyNaoNlY9Hr9wDCVu5D6s6Mrhvb9zfX1zW1EJuXq9sY6J+zXXQZcbaC6St6Fs5H5QA6nNXUwc+ro6EXXOVWVJX5BsuVFMkQyASn6Chb9jG8LlaIlAYpFttr0RUWPhZoD29013XRLzWnWN+7xmuMinu2zoBIFV4x34Aw/d+BwjaKTTTTgJPF8nFU9H2yBZV3hLTgzofpzNc84yMuqQb4R1d/BAAf/+M/VIipmoVgh/eMV68go1jp6wwK/4Ig2qK+cEt9ZZ3n3cH6oPDTdM/xCrl2polv6gYJBPqmiXEt5Sgsscw49gsVVT2M88PMtftotNdfQDDLYrBAhb4G9xhviVQWefw/DvaoTSELd7nJVLPjBPkA3QqRtvBdjKdkz1ASTzsZZiJY3CFo4j6u1xBCY4zkM5PAIaVgLKIZmxV/Kag0jC3H1gOhw3UIkV49j+F1IN3INTqDIsJEImqDCJNPsfY3P65SJv5Crl61GUsXkOZxZ9NKYangMiPY7thAAXhURVzeIDjeBEM0VitKJBOkDrG2U7Bka+JGwWjWspivQpqQArvKMzPhBnH9DyTVAZtCxRwpVVuG8FnoFq53HBnsVk6tn1j2HkL3QYtK0MBypxiuJqDLs6kiNtAFXjMuYWhfrQh6ShX8PZMaxyo6+NFQMUEIUqixbYYtVr6B+rjy494vB1UMwx4UsZpWSPTNg+lhMVK1Me1gPfdIv5MqpSGKvYWxXOg9bIdbOH5Bq8PwQOgRs2Cdk1Ap3V49X99AjVlEDIbiyVEUVlpzkqsKyLEa7BVuUXFMiROAwaVr4FcSCSiIn2BoItnSlDgfDuFI3rvgaDhRwRMfMO0r4IT/0CRQcGSRohKD5HV9DJwUdAs4Ve33bLLCg8RBcPbQtAL9RrbUdjL00GpbKhvejZE1HUFwli5ondiJVoqcXPK6EDTxm8uAYLnfvA+HMvS9J/hDIRoxBgRG/GFdFh6RnEAgQXDm4CRyB1hALEu78H8PDAlj2qEiFxNqWZHxIutnjSvUkfUMEx2SvLnpmGb4XtE5Q2kBTj7VSYOUQex5X0BgDO0PhqkjUUfpJME4NBkJlqEMTRYKWGLAvCamJiCtiFMkGtELJ8I6h9AtQDTD5gBQDeHHCdoCKBf28R7gvJAnlClccsCJ7eUVat6ILGDYnSjAMpb01EXFFmLOGHiSw6bPUbZ9iGPu4dABkNaxFiCt/NjoWV8g6wYrbDtZkCLCyn5JPIEPL7ohJKWwID+SKJ3qwy3NgsDDfiaQ78EMougDcQC+Ix9G5Z9CSbsnSFqo+Hx+LKyiIUTW6DVQ0iK2UwrCvnA4yNbTnBnLlGyi/dHWDsvEOjX2qAUYX0K4ic4V/SUAg5ODK7zoh/KqWztWtr5VDhoOiHQxsV5OsFAYGPVECQQDIVZ3swe4JrsLClzXYEdYBSkNUGBRe4/cBsgzaNMhVoKcR3torNY0r1OzdWglfISjaOxJQ7AmGzbvGKi+HdwhCrnArbmHBuVxhjtDrs3E+67M/7kfDHm6aHpC0d89BXPkzKEFNTs0hF4gwBwU4gVIN+OQtcOlmJfRweiFXImnQOiA8nGO5QTQYw/FqMB+D8kkowClWix7wSzCu/I4rJlfAv4DqB/8KpPlAtZKT9HOt65F+E3Ll6zRs1JngYSjdnc8KEpdejgFxRQPQ2qE6OyZXUK+57gUKEl+HiRWnONYq0booIHrk5T3XJOHqFrMqj4FkyH6uXL16KFdIl9jUw1eo+OPmvqND+SSrV7TybquV961Xh7gib0zlqo3lq5DXQx81EVd+axyTK3jU4Rq8QiBuLrvaKlGP1dqNiHhpnzNA9sogDkN7RQxaGsOSWzYKWnIv8+bZKwoqEVwFbT6dK9AIncgHPJD12z43EpSTzCiBUwb2q3zkB0mX8eRylSd5RomEOyQLd4EfC00KblwRdjBXKA9qNRu/cwEwRTcTk2SW3Qxk5vdPH4dcyWSNXaguVzxh6pBO2F35FQPySnsHIBzMVW6HbtCu0J+3cvJWiVb56AOVz+0fbAW58in7iatFeTLtjBJ+BViJsI96H2iVQQQiOojYXN2joOme0A8Iht0vz5C9UBFAg+AjRhCheJDMHgJzJfimcl4jm1QIfNRnWjzow+FcwTvUkLnyVVGnOUmJhi+8gAyqv7R+oDwDrjpzI42SqMlhWRGAKvZRoVQNyB0Mh3OFRNUjjJ7IatyxrZWcaLbuEI5V9sUuAdDzV08cQ7P43jC+QtDuQC9JyOjr2g0+QSQDrmD8HMxMOMWxV8xQZ4n6A2GXa2RiHnGVFzzH0VIggX5nQlJFplZQntRL6D6yVbtvoQbnjmTA1Sck8mi12NZJCp9o2BQaAq9HCTIsh+wJkgUwV3hKxkWTaIRkHzDsO8AGHoFKUKwAnZ4BVyg/C64gMu12pMLryabbTWFPvhpFMdaPo8NQsw+yokw9wPQz0QjJUMXrFoMlvoLMVnw55DhchY0pauJc+X62DbuebExMV2QAVZHiFe8flDf2Fxm91OEhLqDnyBH6vokUSI2yTYebNqwCyKhEcuXJtVCu2vjnqhKi3dZJ84TjPFC1CuuR8IBzxShifcprAvyTlk3dYY3QLwNRX2qhWL25v71G/aFIhSXgKnysGs4VcaORmHyxdm9CtBx5LsGVLdS9P/O03ld8dEdg6DnWPOxZdOj/yIBlwpU3bsT3tSZqQmFl4RVWqwjNbgNxpaqMD1S/gM++CkQq4wINmATKhKtnjysiv9rR8nrS/RJGqFrFyKGieHC7rpNU1el5/RpWdwI/+vWXn9JMuBqztFvnTHlfrjwEsHc6z4vRJ2N9ExNiWFE9pEcR9TNRpzK12UAWq4IpoMjYOQ5XmM2sYEcnajK5bqOF1uaJ0+ODcdWaeCP78mLYtdj8K9p0pU81smoVqzgtKN8ezRXoUqNxhWwm/rU6opx8loO3QFacRdeIPq8nSXZH+el8+CROtsK68E+iALitwh6JapEF6gHiClwbmAQFj2NcuYcqFK48IedVWVMNawj74E2ZizMTk+wfNJ9mnCYKk+2egOrxE0DYzK7x802taI9Vq+3u/HTCa/3XXIHjHrMP4Ajtg9SC6Z+JlmJ1KxPNhg4bGkMg0JdaNs0M1u16eHx8PGSC1l6gcapenev/nWYhsC2a4RtrGlhIv/Obxn0gKTv8O9XmSl4TDEZzFFwiV6ifElmBQSqqyt6Kb7FSzhfIFep6Q6L9Jd2WXV00E5Ovx7E7F8hVYL7LNuUqFdgk+1jjby+OqzFSolB4jNLu5zJDS+NFZdpdXBBX989XV+17qBe8Jph2YVLT28chRuCcy5SrY28wZq/T4E0wCPY3JwW2Pt3eYQwI2XHVEY683aY3pdA1VwctNJLDZq3GlAyZcdVdSrycqF88McjBJbQJg8nw4u11GNkt4SAbroyNs4Somj/mKnxEv8ihC0LksOmFp+Rq9DoHj+W1I7qIW6xeFWlzK5OhxfCJuWIO5Gq0xjbu5KXjbU6KdXoXA0md5CjjS4/GWt+jrM0d/J2SK3MtEfs68NrRtr29q8AJcJXdnjETcYEvPRpPM+TKLQfprLK5kANLjsvTI1n4cXNXrbCV4u724PZnY6gx6J2Pv1x5mb4xkDo4xrL1maOLLQ6bdiGxuDDXYfvmKikWujk9cK6C61ZkidF6z7ZcvHgBSw/jXB1z89lhT+T2rfbPi29/Y3OCq6OtV25Morf3rm/e+v7TBFd8cOhGFmhMtf1bkzoQ0mV1TwhDw983nhpNhHJfkWLs4cJrMyPzZ2eMEcEVz2W8Ue+wp8XZlYvXmbefDbN0O4O/dD3LJYBb25hbDMv8BXhBbwoORHb7Xg4XsRqfVZflxVu36gAbcncVfpDJe5udWcwNKVWtdym7/OV6PmeuTg82Wa3uq16PtRczr2qriwhvXHT8G9CqB0ay3R4Xq+3ZTImvF8QUNgfAIyt9rrLV7emxd4xXpZNs4pIhWnygaPx8kaYdmttXWYyU516dWl0YUzk4I4yEnnQjtnJ3PZvr8ZqeU6cukSl8tWQMirTsx3VPZnexqYuB3ZH31qmXS2TK6WugFqhen0Ru6m4a/dVSl+T4PDmbVvcuyqLjoDVCp1CCrg16HYNSv1rmsNtfTxVRrKtKTFMObirX1xejp4Igw2df0dS6OJ/z01VvvXDQ6602A+uQJslcMpZsKLrydCEaPQTLqCbEK4KqcrINVVUFPs9EXEAFI0jLTsax+cnR2FOxsgMnHXXvzlNhGd/Zp4RSl7Pc3/uM2GexsoAgMrEVyJvHKnpL5dTgueNunHtqlPOJXVpMogRJWF+smqKjq6dybVFMcdJ034SKC8Viz/bTKYmyrNT6fdhzPyyTlWXVUur6a+P9VSkXrVncdEo0eFmbvR/HR0FrSQ+iExPFadzifbY9D62NP52chijLSBnnLskpsBaTJFcCEGRtsDDOXYhToZFPLUpVXZs+vfemR8DsaclNPK/ImrwK2zD3HWM4ScSWzZM0XRjvVR5EYPhib7cRDYYX6po2WxiXnb07EOXORpT2pT15QdVFcbDq/FPrEwG7E0vWdJlIp/O8onKypIn5KT0P/89F2dguVtOlJS6dwf8yN5hNX9f9hmF+1KYQtMpl00a5/EHRBz6QLf4PKvfAIcf6aI4AAAAASUVORK5CYII=;" vertex="1" parent="1">
          <mxGeometry x="840" y="137.00000000000003" width="99" height="55.96" as="geometry" />
        </mxCell>
        <mxCell id="XJLJNJ6O4m-f_ByMj37F-26" value="" style="endArrow=classic;startArrow=classic;html=1;rounded=0;" edge="1" parent="1">
          <mxGeometry width="50" height="50" relative="1" as="geometry">
            <mxPoint x="690" y="173" as="sourcePoint" />
            <mxPoint x="820" y="173" as="targetPoint" />
          </mxGeometry>
        </mxCell>
        <mxCell id="XJLJNJ6O4m-f_ByMj37F-27" value="Validate Insurance" style="text;html=1;align=center;verticalAlign=middle;whiteSpace=wrap;rounded=0;" vertex="1" parent="1">
          <mxGeometry x="710" y="147" width="110" height="30" as="geometry" />
        </mxCell>
      </root>
    </mxGraphModel>
  </diagram>
</mxfile>
